<svg width="22" height="22" fill="none" xmlns="http://www.w3.org/2000/svg"><path style="color:#000;fill:#a1a3a3;stroke-linecap:round;stroke-linejoin:round;-inkscape-stroke:none" d="M4.125 2.438c-.92 0-1.688.767-1.688 1.687v13.75c0 .92.768 1.688 1.688 1.688h13.75c.92 0 1.688-.768 1.688-1.688V4.125c0-.92-.768-1.688-1.688-1.688zm.313 2h13.125v13.125H4.438z"/><path style="color:#000;fill:#a1a3a3;stroke-linecap:round;stroke-linejoin:round;-inkscape-stroke:none" d="M15.125 1.063a1 1 0 0 0-1 1v2.75a1 1 0 0 0 1 1 1 1 0 0 0 1-1v-2.75a1 1 0 0 0-1-1zM6.875 1.063a1 1 0 0 0-1 1v2.75a1 1 0 0 0 1 1 1 1 0 0 0 1-1v-2.75a1 1 0 0 0-1-1zM3.438 6.563a1 1 0 0 0-1 1 1 1 0 0 0 1 1h15.124a1 1 0 0 0 1-1 1 1 0 0 0-1-1z"/></svg>